# Blender v2.79 (sub 0) OBJ File: ''
# www.blender.org
mtllib TerrainPatch.mtl
o Grid_Grid.001
v -1.000000 0.000000 1.000000
v -0.857143 0.000000 1.000000
v -0.714286 0.000000 1.000000
v -0.571429 0.000000 1.000000
v -0.428571 0.000000 1.000000
v -0.285714 0.000000 1.000000
v -0.142857 0.000000 1.000000
v 0.000000 0.000000 1.000000
v 0.142857 0.000000 1.000000
v 0.285714 0.000000 1.000000
v 0.428571 0.000000 1.000000
v 0.571429 0.000000 1.000000
v 0.714286 0.000000 1.000000
v 0.857143 0.000000 1.000000
v 1.000000 0.000000 1.000000
v -1.000000 0.000000 0.857143
v -0.857143 0.000000 0.857143
v -0.714286 0.000000 0.857143
v -0.571429 0.000000 0.857143
v -0.428571 0.000000 0.857143
v -0.285714 0.000000 0.857143
v -0.142857 0.000000 0.857143
v 0.000000 0.000000 0.857143
v 0.142857 0.000000 0.857143
v 0.285714 0.000000 0.857143
v 0.428571 0.000000 0.857143
v 0.571429 0.000000 0.857143
v 0.714286 0.000000 0.857143
v 0.857143 0.000000 0.857143
v 1.000000 0.000000 0.857143
v -1.000000 0.000000 0.714286
v -0.857143 0.000000 0.714286
v -0.714286 0.000000 0.714286
v -0.571429 0.000000 0.714286
v -0.428571 0.000000 0.714286
v -0.285714 0.000000 0.714286
v -0.142857 0.000000 0.714286
v 0.000000 0.000000 0.714286
v 0.142857 0.000000 0.714286
v 0.285714 0.000000 0.714286
v 0.428571 0.000000 0.714286
v 0.571429 0.000000 0.714286
v 0.714286 0.000000 0.714286
v 0.857143 0.000000 0.714286
v 1.000000 0.000000 0.714286
v -1.000000 0.000000 0.571429
v -0.857143 0.000000 0.571429
v -0.714286 0.000000 0.571429
v -0.571429 0.000000 0.571429
v -0.428571 0.000000 0.571429
v -0.285714 0.000000 0.571429
v -0.142857 0.000000 0.571429
v 0.000000 0.000000 0.571429
v 0.142857 0.000000 0.571429
v 0.285714 0.000000 0.571429
v 0.428571 0.000000 0.571429
v 0.571429 0.000000 0.571429
v 0.714286 0.000000 0.571429
v 0.857143 0.000000 0.571429
v 1.000000 0.000000 0.571429
v -1.000000 0.000000 0.428571
v -0.857143 0.000000 0.428571
v -0.714286 0.000000 0.428571
v -0.571429 0.000000 0.428571
v -0.428571 0.000000 0.428571
v -0.285714 0.000000 0.428571
v -0.142857 0.000000 0.428571
v 0.000000 0.000000 0.428571
v 0.142857 0.000000 0.428571
v 0.285714 0.000000 0.428571
v 0.428571 0.000000 0.428571
v 0.571429 0.000000 0.428571
v 0.714286 0.000000 0.428571
v 0.857143 0.000000 0.428571
v 1.000000 0.000000 0.428571
v -1.000000 0.000000 0.285714
v -0.857143 0.000000 0.285714
v -0.714286 0.000000 0.285714
v -0.571429 0.000000 0.285714
v -0.428571 0.000000 0.285714
v -0.285714 0.000000 0.285714
v -0.142857 0.000000 0.285714
v 0.000000 0.000000 0.285714
v 0.142857 0.000000 0.285714
v 0.285714 0.000000 0.285714
v 0.428571 0.000000 0.285714
v 0.571429 0.000000 0.285714
v 0.714286 0.000000 0.285714
v 0.857143 0.000000 0.285714
v 1.000000 0.000000 0.285714
v -1.000000 0.000000 0.142857
v -0.857143 0.000000 0.142857
v -0.714286 0.000000 0.142857
v -0.571429 0.000000 0.142857
v -0.428571 0.000000 0.142857
v -0.285714 0.000000 0.142857
v -0.142857 0.000000 0.142857
v 0.000000 0.000000 0.142857
v 0.142857 0.000000 0.142857
v 0.285714 0.000000 0.142857
v 0.428571 0.000000 0.142857
v 0.571429 0.000000 0.142857
v 0.714286 0.000000 0.142857
v 0.857143 0.000000 0.142857
v 1.000000 0.000000 0.142857
v -1.000000 0.000000 0.000000
v -0.857143 0.000000 0.000000
v -0.714286 0.000000 0.000000
v -0.571429 0.000000 0.000000
v -0.428571 0.000000 0.000000
v -0.285714 0.000000 0.000000
v -0.142857 0.000000 0.000000
v 0.000000 0.000000 0.000000
v 0.142857 0.000000 0.000000
v 0.285714 0.000000 0.000000
v 0.428571 0.000000 0.000000
v 0.571429 0.000000 0.000000
v 0.714286 0.000000 0.000000
v 0.857143 0.000000 0.000000
v 1.000000 0.000000 0.000000
v -1.000000 0.000000 -0.142857
v -0.857143 0.000000 -0.142857
v -0.714286 0.000000 -0.142857
v -0.571429 0.000000 -0.142857
v -0.428571 0.000000 -0.142857
v -0.285714 0.000000 -0.142857
v -0.142857 0.000000 -0.142857
v 0.000000 0.000000 -0.142857
v 0.142857 0.000000 -0.142857
v 0.285714 0.000000 -0.142857
v 0.428571 0.000000 -0.142857
v 0.571429 0.000000 -0.142857
v 0.714286 0.000000 -0.142857
v 0.857143 0.000000 -0.142857
v 1.000000 0.000000 -0.142857
v -1.000000 0.000000 -0.285714
v -0.857143 0.000000 -0.285714
v -0.714286 0.000000 -0.285714
v -0.571429 0.000000 -0.285714
v -0.428571 0.000000 -0.285714
v -0.285714 0.000000 -0.285714
v -0.142857 0.000000 -0.285714
v 0.000000 0.000000 -0.285714
v 0.142857 0.000000 -0.285714
v 0.285714 0.000000 -0.285714
v 0.428571 0.000000 -0.285714
v 0.571429 0.000000 -0.285714
v 0.714286 0.000000 -0.285714
v 0.857143 0.000000 -0.285714
v 1.000000 0.000000 -0.285714
v -1.000000 0.000000 -0.428571
v -0.857143 0.000000 -0.428571
v -0.714286 0.000000 -0.428571
v -0.571429 0.000000 -0.428571
v -0.428571 0.000000 -0.428571
v -0.285714 0.000000 -0.428571
v -0.142857 0.000000 -0.428571
v 0.000000 0.000000 -0.428571
v 0.142857 0.000000 -0.428571
v 0.285714 0.000000 -0.428571
v 0.428571 0.000000 -0.428571
v 0.571429 0.000000 -0.428571
v 0.714286 0.000000 -0.428571
v 0.857143 0.000000 -0.428571
v 1.000000 0.000000 -0.428571
v -1.000000 0.000000 -0.571429
v -0.857143 0.000000 -0.571429
v -0.714286 0.000000 -0.571429
v -0.571429 0.000000 -0.571429
v -0.428571 0.000000 -0.571429
v -0.285714 0.000000 -0.571429
v -0.142857 0.000000 -0.571429
v 0.000000 0.000000 -0.571429
v 0.142857 0.000000 -0.571429
v 0.285714 0.000000 -0.571429
v 0.428571 0.000000 -0.571429
v 0.571429 0.000000 -0.571429
v 0.714286 0.000000 -0.571429
v 0.857143 0.000000 -0.571429
v 1.000000 0.000000 -0.571429
v -1.000000 0.000000 -0.714286
v -0.857143 0.000000 -0.714286
v -0.714286 0.000000 -0.714286
v -0.571429 0.000000 -0.714286
v -0.428571 0.000000 -0.714286
v -0.285714 0.000000 -0.714286
v -0.142857 0.000000 -0.714286
v 0.000000 0.000000 -0.714286
v 0.142857 0.000000 -0.714286
v 0.285714 0.000000 -0.714286
v 0.428571 0.000000 -0.714286
v 0.571429 0.000000 -0.714286
v 0.714286 0.000000 -0.714286
v 0.857143 0.000000 -0.714286
v 1.000000 0.000000 -0.714286
v -1.000000 0.000000 -0.857143
v -0.857143 0.000000 -0.857143
v -0.714286 0.000000 -0.857143
v -0.571429 0.000000 -0.857143
v -0.428571 0.000000 -0.857143
v -0.285714 0.000000 -0.857143
v -0.142857 0.000000 -0.857143
v 0.000000 0.000000 -0.857143
v 0.142857 0.000000 -0.857143
v 0.285714 0.000000 -0.857143
v 0.428571 0.000000 -0.857143
v 0.571429 0.000000 -0.857143
v 0.714286 0.000000 -0.857143
v 0.857143 0.000000 -0.857143
v 1.000000 0.000000 -0.857143
v -1.000000 0.000000 -1.000000
v -0.857143 0.000000 -1.000000
v -0.714286 0.000000 -1.000000
v -0.571429 0.000000 -1.000000
v -0.428571 0.000000 -1.000000
v -0.285714 0.000000 -1.000000
v -0.142857 0.000000 -1.000000
v 0.000000 0.000000 -1.000000
v 0.142857 0.000000 -1.000000
v 0.285714 0.000000 -1.000000
v 0.428571 0.000000 -1.000000
v 0.571429 0.000000 -1.000000
v 0.714286 0.000000 -1.000000
v 0.857143 0.000000 -1.000000
v 1.000000 0.000000 -1.000000
vt 0.071514 0.000101
vt 0.000100 0.071515
vt 0.000100 0.000101
vt 0.142928 0.000101
vt 0.071514 0.071515
vt 0.214343 0.000100
vt 0.142928 0.071515
vt 0.285757 0.000100
vt 0.214343 0.071515
vt 0.357171 0.000100
vt 0.285757 0.071515
vt 0.428585 0.000100
vt 0.357171 0.071515
vt 0.500000 0.000100
vt 0.428586 0.071514
vt 0.571414 0.000100
vt 0.500000 0.071514
vt 0.642828 0.000100
vt 0.571414 0.071514
vt 0.714243 0.000100
vt 0.642828 0.071514
vt 0.785657 0.000100
vt 0.714243 0.071514
vt 0.857071 0.000100
vt 0.785657 0.071514
vt 0.928485 0.000100
vt 0.857071 0.071514
vt 0.999900 0.000100
vt 0.928485 0.071514
vt 0.000100 0.142929
vt 0.071514 0.142929
vt 0.142929 0.142929
vt 0.214343 0.142929
vt 0.285757 0.142929
vt 0.357171 0.142929
vt 0.428586 0.142929
vt 0.500000 0.142929
vt 0.571414 0.142929
vt 0.642828 0.142929
vt 0.714243 0.142929
vt 0.785657 0.142929
vt 0.857071 0.142929
vt 0.999900 0.071514
vt 0.928486 0.142928
vt 0.000100 0.214343
vt 0.071514 0.214343
vt 0.142929 0.214343
vt 0.214343 0.214343
vt 0.285757 0.214343
vt 0.357171 0.214343
vt 0.428586 0.214343
vt 0.500000 0.214343
vt 0.571414 0.214343
vt 0.642829 0.214343
vt 0.714243 0.214343
vt 0.785657 0.214343
vt 0.857071 0.214343
vt 0.999900 0.142928
vt 0.928486 0.214343
vt 0.000100 0.285757
vt 0.071514 0.285757
vt 0.142929 0.285757
vt 0.214343 0.285757
vt 0.285757 0.285757
vt 0.357171 0.285757
vt 0.428586 0.285757
vt 0.500000 0.285757
vt 0.571414 0.285757
vt 0.642829 0.285757
vt 0.714243 0.285757
vt 0.785657 0.285757
vt 0.857071 0.285757
vt 0.999900 0.214343
vt 0.928486 0.285757
vt 0.000100 0.357172
vt 0.071515 0.357172
vt 0.142929 0.357172
vt 0.214343 0.357172
vt 0.285757 0.357172
vt 0.357171 0.357172
vt 0.428586 0.357172
vt 0.500000 0.357171
vt 0.571414 0.357171
vt 0.642829 0.357171
vt 0.714243 0.357171
vt 0.785657 0.357171
vt 0.857071 0.357171
vt 0.999900 0.285757
vt 0.928486 0.357171
vt 0.000100 0.428586
vt 0.071515 0.428586
vt 0.142929 0.428586
vt 0.214343 0.428586
vt 0.285757 0.428586
vt 0.357171 0.428586
vt 0.428586 0.428586
vt 0.500000 0.428586
vt 0.571414 0.428586
vt 0.642829 0.428586
vt 0.714243 0.428586
vt 0.785657 0.428586
vt 0.857071 0.428586
vt 0.999900 0.357171
vt 0.928486 0.428586
vt 0.000100 0.500000
vt 0.071515 0.500000
vt 0.142929 0.500000
vt 0.214343 0.500000
vt 0.285757 0.500000
vt 0.357172 0.500000
vt 0.428586 0.500000
vt 0.500000 0.500000
vt 0.571414 0.500000
vt 0.642829 0.500000
vt 0.714243 0.500000
vt 0.785657 0.500000
vt 0.857071 0.500000
vt 0.999900 0.428586
vt 0.928486 0.500000
vt 0.000100 0.571414
vt 0.071515 0.571414
vt 0.142929 0.571414
vt 0.214343 0.571414
vt 0.285757 0.571414
vt 0.357172 0.571414
vt 0.428586 0.571414
vt 0.500000 0.571414
vt 0.571414 0.571414
vt 0.642829 0.571414
vt 0.714243 0.571414
vt 0.785657 0.571414
vt 0.857071 0.571414
vt 0.999900 0.500000
vt 0.928486 0.571414
vt 0.000100 0.642829
vt 0.071515 0.642829
vt 0.142929 0.642829
vt 0.214343 0.642829
vt 0.285757 0.642829
vt 0.357172 0.642829
vt 0.428586 0.642829
vt 0.500000 0.642829
vt 0.571414 0.642829
vt 0.642829 0.642829
vt 0.714243 0.642829
vt 0.785657 0.642829
vt 0.857072 0.642829
vt 0.999900 0.571414
vt 0.928486 0.642829
vt 0.000100 0.714243
vt 0.071515 0.714243
vt 0.142929 0.714243
vt 0.214343 0.714243
vt 0.285757 0.714243
vt 0.357172 0.714243
vt 0.428586 0.714243
vt 0.500000 0.714243
vt 0.571414 0.714243
vt 0.642829 0.714243
vt 0.714243 0.714243
vt 0.785657 0.714243
vt 0.857072 0.714243
vt 0.999900 0.642829
vt 0.928486 0.714243
vt 0.000100 0.785657
vt 0.071515 0.785657
vt 0.142929 0.785657
vt 0.214343 0.785657
vt 0.285757 0.785657
vt 0.357172 0.785657
vt 0.428586 0.785657
vt 0.500000 0.785657
vt 0.571414 0.785657
vt 0.642829 0.785657
vt 0.714243 0.785657
vt 0.785657 0.785657
vt 0.857072 0.785657
vt 0.999900 0.714243
vt 0.928486 0.785657
vt 0.000100 0.857071
vt 0.071515 0.857071
vt 0.142929 0.857071
vt 0.214343 0.857071
vt 0.285757 0.857071
vt 0.357172 0.857071
vt 0.428586 0.857071
vt 0.500000 0.857071
vt 0.571414 0.857071
vt 0.642829 0.857071
vt 0.714243 0.857071
vt 0.785657 0.857071
vt 0.857072 0.857071
vt 0.999900 0.785657
vt 0.928486 0.857071
vt 0.000100 0.928486
vt 0.071515 0.928486
vt 0.142929 0.928486
vt 0.214343 0.928486
vt 0.285757 0.928486
vt 0.357172 0.928486
vt 0.428586 0.928486
vt 0.500000 0.928486
vt 0.571414 0.928486
vt 0.642829 0.928486
vt 0.714243 0.928486
vt 0.785657 0.928486
vt 0.857072 0.928486
vt 0.999900 0.857071
vt 0.928486 0.928486
vt 0.000100 0.999900
vt 0.071515 0.999900
vt 0.142929 0.999900
vt 0.214343 0.999900
vt 0.285757 0.999900
vt 0.357172 0.999900
vt 0.428586 0.999900
vt 0.500000 0.999900
vt 0.571414 0.999900
vt 0.642829 0.999900
vt 0.714243 0.999900
vt 0.785657 0.999900
vt 0.857072 0.999900
vt 0.999900 0.928486
vt 0.928486 0.999900
vt 0.999900 0.999900
vn 0.0000 1.0000 0.0000
usemtl None
s off
f 2/1/1 16/2/1 1/3/1
f 3/4/1 17/5/1 2/1/1
f 4/6/1 18/7/1 3/4/1
f 5/8/1 19/9/1 4/6/1
f 6/10/1 20/11/1 5/8/1
f 7/12/1 21/13/1 6/10/1
f 8/14/1 22/15/1 7/12/1
f 9/16/1 23/17/1 8/14/1
f 10/18/1 24/19/1 9/16/1
f 11/20/1 25/21/1 10/18/1
f 12/22/1 26/23/1 11/20/1
f 13/24/1 27/25/1 12/22/1
f 14/26/1 28/27/1 13/24/1
f 15/28/1 29/29/1 14/26/1
f 17/5/1 31/30/1 16/2/1
f 18/7/1 32/31/1 17/5/1
f 19/9/1 33/32/1 18/7/1
f 20/11/1 34/33/1 19/9/1
f 21/13/1 35/34/1 20/11/1
f 22/15/1 36/35/1 21/13/1
f 23/17/1 37/36/1 22/15/1
f 24/19/1 38/37/1 23/17/1
f 25/21/1 39/38/1 24/19/1
f 26/23/1 40/39/1 25/21/1
f 27/25/1 41/40/1 26/23/1
f 28/27/1 42/41/1 27/25/1
f 29/29/1 43/42/1 28/27/1
f 30/43/1 44/44/1 29/29/1
f 32/31/1 46/45/1 31/30/1
f 33/32/1 47/46/1 32/31/1
f 34/33/1 48/47/1 33/32/1
f 35/34/1 49/48/1 34/33/1
f 36/35/1 50/49/1 35/34/1
f 37/36/1 51/50/1 36/35/1
f 38/37/1 52/51/1 37/36/1
f 39/38/1 53/52/1 38/37/1
f 40/39/1 54/53/1 39/38/1
f 41/40/1 55/54/1 40/39/1
f 42/41/1 56/55/1 41/40/1
f 43/42/1 57/56/1 42/41/1
f 44/44/1 58/57/1 43/42/1
f 45/58/1 59/59/1 44/44/1
f 47/46/1 61/60/1 46/45/1
f 48/47/1 62/61/1 47/46/1
f 49/48/1 63/62/1 48/47/1
f 50/49/1 64/63/1 49/48/1
f 51/50/1 65/64/1 50/49/1
f 52/51/1 66/65/1 51/50/1
f 53/52/1 67/66/1 52/51/1
f 54/53/1 68/67/1 53/52/1
f 55/54/1 69/68/1 54/53/1
f 56/55/1 70/69/1 55/54/1
f 57/56/1 71/70/1 56/55/1
f 58/57/1 72/71/1 57/56/1
f 59/59/1 73/72/1 58/57/1
f 60/73/1 74/74/1 59/59/1
f 62/61/1 76/75/1 61/60/1
f 63/62/1 77/76/1 62/61/1
f 64/63/1 78/77/1 63/62/1
f 65/64/1 79/78/1 64/63/1
f 66/65/1 80/79/1 65/64/1
f 67/66/1 81/80/1 66/65/1
f 68/67/1 82/81/1 67/66/1
f 69/68/1 83/82/1 68/67/1
f 70/69/1 84/83/1 69/68/1
f 71/70/1 85/84/1 70/69/1
f 72/71/1 86/85/1 71/70/1
f 73/72/1 87/86/1 72/71/1
f 74/74/1 88/87/1 73/72/1
f 75/88/1 89/89/1 74/74/1
f 77/76/1 91/90/1 76/75/1
f 78/77/1 92/91/1 77/76/1
f 79/78/1 93/92/1 78/77/1
f 80/79/1 94/93/1 79/78/1
f 81/80/1 95/94/1 80/79/1
f 82/81/1 96/95/1 81/80/1
f 83/82/1 97/96/1 82/81/1
f 84/83/1 98/97/1 83/82/1
f 85/84/1 99/98/1 84/83/1
f 86/85/1 100/99/1 85/84/1
f 87/86/1 101/100/1 86/85/1
f 88/87/1 102/101/1 87/86/1
f 89/89/1 103/102/1 88/87/1
f 90/103/1 104/104/1 89/89/1
f 92/91/1 106/105/1 91/90/1
f 93/92/1 107/106/1 92/91/1
f 94/93/1 108/107/1 93/92/1
f 95/94/1 109/108/1 94/93/1
f 96/95/1 110/109/1 95/94/1
f 97/96/1 111/110/1 96/95/1
f 98/97/1 112/111/1 97/96/1
f 99/98/1 113/112/1 98/97/1
f 100/99/1 114/113/1 99/98/1
f 101/100/1 115/114/1 100/99/1
f 102/101/1 116/115/1 101/100/1
f 103/102/1 117/116/1 102/101/1
f 104/104/1 118/117/1 103/102/1
f 105/118/1 119/119/1 104/104/1
f 107/106/1 121/120/1 106/105/1
f 108/107/1 122/121/1 107/106/1
f 109/108/1 123/122/1 108/107/1
f 110/109/1 124/123/1 109/108/1
f 111/110/1 125/124/1 110/109/1
f 112/111/1 126/125/1 111/110/1
f 113/112/1 127/126/1 112/111/1
f 114/113/1 128/127/1 113/112/1
f 115/114/1 129/128/1 114/113/1
f 116/115/1 130/129/1 115/114/1
f 117/116/1 131/130/1 116/115/1
f 118/117/1 132/131/1 117/116/1
f 119/119/1 133/132/1 118/117/1
f 120/133/1 134/134/1 119/119/1
f 122/121/1 136/135/1 121/120/1
f 123/122/1 137/136/1 122/121/1
f 124/123/1 138/137/1 123/122/1
f 125/124/1 139/138/1 124/123/1
f 126/125/1 140/139/1 125/124/1
f 127/126/1 141/140/1 126/125/1
f 128/127/1 142/141/1 127/126/1
f 129/128/1 143/142/1 128/127/1
f 130/129/1 144/143/1 129/128/1
f 131/130/1 145/144/1 130/129/1
f 132/131/1 146/145/1 131/130/1
f 133/132/1 147/146/1 132/131/1
f 134/134/1 148/147/1 133/132/1
f 135/148/1 149/149/1 134/134/1
f 137/136/1 151/150/1 136/135/1
f 138/137/1 152/151/1 137/136/1
f 139/138/1 153/152/1 138/137/1
f 140/139/1 154/153/1 139/138/1
f 141/140/1 155/154/1 140/139/1
f 142/141/1 156/155/1 141/140/1
f 143/142/1 157/156/1 142/141/1
f 144/143/1 158/157/1 143/142/1
f 145/144/1 159/158/1 144/143/1
f 146/145/1 160/159/1 145/144/1
f 147/146/1 161/160/1 146/145/1
f 148/147/1 162/161/1 147/146/1
f 149/149/1 163/162/1 148/147/1
f 150/163/1 164/164/1 149/149/1
f 152/151/1 166/165/1 151/150/1
f 153/152/1 167/166/1 152/151/1
f 154/153/1 168/167/1 153/152/1
f 155/154/1 169/168/1 154/153/1
f 156/155/1 170/169/1 155/154/1
f 157/156/1 171/170/1 156/155/1
f 158/157/1 172/171/1 157/156/1
f 159/158/1 173/172/1 158/157/1
f 160/159/1 174/173/1 159/158/1
f 161/160/1 175/174/1 160/159/1
f 162/161/1 176/175/1 161/160/1
f 163/162/1 177/176/1 162/161/1
f 164/164/1 178/177/1 163/162/1
f 165/178/1 179/179/1 164/164/1
f 167/166/1 181/180/1 166/165/1
f 168/167/1 182/181/1 167/166/1
f 169/168/1 183/182/1 168/167/1
f 170/169/1 184/183/1 169/168/1
f 171/170/1 185/184/1 170/169/1
f 172/171/1 186/185/1 171/170/1
f 173/172/1 187/186/1 172/171/1
f 174/173/1 188/187/1 173/172/1
f 175/174/1 189/188/1 174/173/1
f 176/175/1 190/189/1 175/174/1
f 177/176/1 191/190/1 176/175/1
f 178/177/1 192/191/1 177/176/1
f 179/179/1 193/192/1 178/177/1
f 180/193/1 194/194/1 179/179/1
f 182/181/1 196/195/1 181/180/1
f 183/182/1 197/196/1 182/181/1
f 184/183/1 198/197/1 183/182/1
f 185/184/1 199/198/1 184/183/1
f 186/185/1 200/199/1 185/184/1
f 187/186/1 201/200/1 186/185/1
f 188/187/1 202/201/1 187/186/1
f 189/188/1 203/202/1 188/187/1
f 190/189/1 204/203/1 189/188/1
f 191/190/1 205/204/1 190/189/1
f 192/191/1 206/205/1 191/190/1
f 193/192/1 207/206/1 192/191/1
f 194/194/1 208/207/1 193/192/1
f 195/208/1 209/209/1 194/194/1
f 197/196/1 211/210/1 196/195/1
f 198/197/1 212/211/1 197/196/1
f 199/198/1 213/212/1 198/197/1
f 200/199/1 214/213/1 199/198/1
f 201/200/1 215/214/1 200/199/1
f 202/201/1 216/215/1 201/200/1
f 203/202/1 217/216/1 202/201/1
f 204/203/1 218/217/1 203/202/1
f 205/204/1 219/218/1 204/203/1
f 206/205/1 220/219/1 205/204/1
f 207/206/1 221/220/1 206/205/1
f 208/207/1 222/221/1 207/206/1
f 209/209/1 223/222/1 208/207/1
f 210/223/1 224/224/1 209/209/1
f 2/1/1 17/5/1 16/2/1
f 3/4/1 18/7/1 17/5/1
f 4/6/1 19/9/1 18/7/1
f 5/8/1 20/11/1 19/9/1
f 6/10/1 21/13/1 20/11/1
f 7/12/1 22/15/1 21/13/1
f 8/14/1 23/17/1 22/15/1
f 9/16/1 24/19/1 23/17/1
f 10/18/1 25/21/1 24/19/1
f 11/20/1 26/23/1 25/21/1
f 12/22/1 27/25/1 26/23/1
f 13/24/1 28/27/1 27/25/1
f 14/26/1 29/29/1 28/27/1
f 15/28/1 30/43/1 29/29/1
f 17/5/1 32/31/1 31/30/1
f 18/7/1 33/32/1 32/31/1
f 19/9/1 34/33/1 33/32/1
f 20/11/1 35/34/1 34/33/1
f 21/13/1 36/35/1 35/34/1
f 22/15/1 37/36/1 36/35/1
f 23/17/1 38/37/1 37/36/1
f 24/19/1 39/38/1 38/37/1
f 25/21/1 40/39/1 39/38/1
f 26/23/1 41/40/1 40/39/1
f 27/25/1 42/41/1 41/40/1
f 28/27/1 43/42/1 42/41/1
f 29/29/1 44/44/1 43/42/1
f 30/43/1 45/58/1 44/44/1
f 32/31/1 47/46/1 46/45/1
f 33/32/1 48/47/1 47/46/1
f 34/33/1 49/48/1 48/47/1
f 35/34/1 50/49/1 49/48/1
f 36/35/1 51/50/1 50/49/1
f 37/36/1 52/51/1 51/50/1
f 38/37/1 53/52/1 52/51/1
f 39/38/1 54/53/1 53/52/1
f 40/39/1 55/54/1 54/53/1
f 41/40/1 56/55/1 55/54/1
f 42/41/1 57/56/1 56/55/1
f 43/42/1 58/57/1 57/56/1
f 44/44/1 59/59/1 58/57/1
f 45/58/1 60/73/1 59/59/1
f 47/46/1 62/61/1 61/60/1
f 48/47/1 63/62/1 62/61/1
f 49/48/1 64/63/1 63/62/1
f 50/49/1 65/64/1 64/63/1
f 51/50/1 66/65/1 65/64/1
f 52/51/1 67/66/1 66/65/1
f 53/52/1 68/67/1 67/66/1
f 54/53/1 69/68/1 68/67/1
f 55/54/1 70/69/1 69/68/1
f 56/55/1 71/70/1 70/69/1
f 57/56/1 72/71/1 71/70/1
f 58/57/1 73/72/1 72/71/1
f 59/59/1 74/74/1 73/72/1
f 60/73/1 75/88/1 74/74/1
f 62/61/1 77/76/1 76/75/1
f 63/62/1 78/77/1 77/76/1
f 64/63/1 79/78/1 78/77/1
f 65/64/1 80/79/1 79/78/1
f 66/65/1 81/80/1 80/79/1
f 67/66/1 82/81/1 81/80/1
f 68/67/1 83/82/1 82/81/1
f 69/68/1 84/83/1 83/82/1
f 70/69/1 85/84/1 84/83/1
f 71/70/1 86/85/1 85/84/1
f 72/71/1 87/86/1 86/85/1
f 73/72/1 88/87/1 87/86/1
f 74/74/1 89/89/1 88/87/1
f 75/88/1 90/103/1 89/89/1
f 77/76/1 92/91/1 91/90/1
f 78/77/1 93/92/1 92/91/1
f 79/78/1 94/93/1 93/92/1
f 80/79/1 95/94/1 94/93/1
f 81/80/1 96/95/1 95/94/1
f 82/81/1 97/96/1 96/95/1
f 83/82/1 98/97/1 97/96/1
f 84/83/1 99/98/1 98/97/1
f 85/84/1 100/99/1 99/98/1
f 86/85/1 101/100/1 100/99/1
f 87/86/1 102/101/1 101/100/1
f 88/87/1 103/102/1 102/101/1
f 89/89/1 104/104/1 103/102/1
f 90/103/1 105/118/1 104/104/1
f 92/91/1 107/106/1 106/105/1
f 93/92/1 108/107/1 107/106/1
f 94/93/1 109/108/1 108/107/1
f 95/94/1 110/109/1 109/108/1
f 96/95/1 111/110/1 110/109/1
f 97/96/1 112/111/1 111/110/1
f 98/97/1 113/112/1 112/111/1
f 99/98/1 114/113/1 113/112/1
f 100/99/1 115/114/1 114/113/1
f 101/100/1 116/115/1 115/114/1
f 102/101/1 117/116/1 116/115/1
f 103/102/1 118/117/1 117/116/1
f 104/104/1 119/119/1 118/117/1
f 105/118/1 120/133/1 119/119/1
f 107/106/1 122/121/1 121/120/1
f 108/107/1 123/122/1 122/121/1
f 109/108/1 124/123/1 123/122/1
f 110/109/1 125/124/1 124/123/1
f 111/110/1 126/125/1 125/124/1
f 112/111/1 127/126/1 126/125/1
f 113/112/1 128/127/1 127/126/1
f 114/113/1 129/128/1 128/127/1
f 115/114/1 130/129/1 129/128/1
f 116/115/1 131/130/1 130/129/1
f 117/116/1 132/131/1 131/130/1
f 118/117/1 133/132/1 132/131/1
f 119/119/1 134/134/1 133/132/1
f 120/133/1 135/148/1 134/134/1
f 122/121/1 137/136/1 136/135/1
f 123/122/1 138/137/1 137/136/1
f 124/123/1 139/138/1 138/137/1
f 125/124/1 140/139/1 139/138/1
f 126/125/1 141/140/1 140/139/1
f 127/126/1 142/141/1 141/140/1
f 128/127/1 143/142/1 142/141/1
f 129/128/1 144/143/1 143/142/1
f 130/129/1 145/144/1 144/143/1
f 131/130/1 146/145/1 145/144/1
f 132/131/1 147/146/1 146/145/1
f 133/132/1 148/147/1 147/146/1
f 134/134/1 149/149/1 148/147/1
f 135/148/1 150/163/1 149/149/1
f 137/136/1 152/151/1 151/150/1
f 138/137/1 153/152/1 152/151/1
f 139/138/1 154/153/1 153/152/1
f 140/139/1 155/154/1 154/153/1
f 141/140/1 156/155/1 155/154/1
f 142/141/1 157/156/1 156/155/1
f 143/142/1 158/157/1 157/156/1
f 144/143/1 159/158/1 158/157/1
f 145/144/1 160/159/1 159/158/1
f 146/145/1 161/160/1 160/159/1
f 147/146/1 162/161/1 161/160/1
f 148/147/1 163/162/1 162/161/1
f 149/149/1 164/164/1 163/162/1
f 150/163/1 165/178/1 164/164/1
f 152/151/1 167/166/1 166/165/1
f 153/152/1 168/167/1 167/166/1
f 154/153/1 169/168/1 168/167/1
f 155/154/1 170/169/1 169/168/1
f 156/155/1 171/170/1 170/169/1
f 157/156/1 172/171/1 171/170/1
f 158/157/1 173/172/1 172/171/1
f 159/158/1 174/173/1 173/172/1
f 160/159/1 175/174/1 174/173/1
f 161/160/1 176/175/1 175/174/1
f 162/161/1 177/176/1 176/175/1
f 163/162/1 178/177/1 177/176/1
f 164/164/1 179/179/1 178/177/1
f 165/178/1 180/193/1 179/179/1
f 167/166/1 182/181/1 181/180/1
f 168/167/1 183/182/1 182/181/1
f 169/168/1 184/183/1 183/182/1
f 170/169/1 185/184/1 184/183/1
f 171/170/1 186/185/1 185/184/1
f 172/171/1 187/186/1 186/185/1
f 173/172/1 188/187/1 187/186/1
f 174/173/1 189/188/1 188/187/1
f 175/174/1 190/189/1 189/188/1
f 176/175/1 191/190/1 190/189/1
f 177/176/1 192/191/1 191/190/1
f 178/177/1 193/192/1 192/191/1
f 179/179/1 194/194/1 193/192/1
f 180/193/1 195/208/1 194/194/1
f 182/181/1 197/196/1 196/195/1
f 183/182/1 198/197/1 197/196/1
f 184/183/1 199/198/1 198/197/1
f 185/184/1 200/199/1 199/198/1
f 186/185/1 201/200/1 200/199/1
f 187/186/1 202/201/1 201/200/1
f 188/187/1 203/202/1 202/201/1
f 189/188/1 204/203/1 203/202/1
f 190/189/1 205/204/1 204/203/1
f 191/190/1 206/205/1 205/204/1
f 192/191/1 207/206/1 206/205/1
f 193/192/1 208/207/1 207/206/1
f 194/194/1 209/209/1 208/207/1
f 195/208/1 210/223/1 209/209/1
f 197/196/1 212/211/1 211/210/1
f 198/197/1 213/212/1 212/211/1
f 199/198/1 214/213/1 213/212/1
f 200/199/1 215/214/1 214/213/1
f 201/200/1 216/215/1 215/214/1
f 202/201/1 217/216/1 216/215/1
f 203/202/1 218/217/1 217/216/1
f 204/203/1 219/218/1 218/217/1
f 205/204/1 220/219/1 219/218/1
f 206/205/1 221/220/1 220/219/1
f 207/206/1 222/221/1 221/220/1
f 208/207/1 223/222/1 222/221/1
f 209/209/1 224/224/1 223/222/1
f 210/223/1 225/225/1 224/224/1
